<mxfile host="app.diagrams.net" modified="2022-05-19T05:40:43.482Z" agent="5.0 (X11; Linux x86_64) AppleWebKit/537.36 (KHTML, like Gecko) Chrome/100.0.4896.88 Safari/537.36" etag="inPtdqkS4SdCv_NrzjHi" version="18.0.7" type="github">
  <diagram id="6a731a19-8d31-9384-78a2-239565b7b9f0" name="Page-1">
    <mxGraphModel dx="1422" dy="734" grid="1" gridSize="10" guides="1" tooltips="1" connect="1" arrows="1" fold="1" page="1" pageScale="1" pageWidth="1169" pageHeight="827" background="none" math="0" shadow="1">
      <root>
        <mxCell id="0" />
        <mxCell id="1" parent="0" />
        <mxCell id="KtHz6CWN3VUIrA_hkouJ-240" value="" style="strokeColor=#FFFFFF;fillColor=#BAC8D3;fontSize=18;strokeWidth=2;fontFamily=Helvetica;html=1;opacity=60;" parent="1" vertex="1">
          <mxGeometry x="2690" y="1131" width="900" height="100" as="geometry" />
        </mxCell>
        <mxCell id="KtHz6CWN3VUIrA_hkouJ-241" value="" style="strokeColor=#FFFFFF;fillColor=#BAC8D3;fontSize=18;strokeWidth=2;fontFamily=Helvetica;html=1;opacity=90;" parent="1" vertex="1">
          <mxGeometry x="2690" y="1230.5" width="900" height="100" as="geometry" />
        </mxCell>
        <mxCell id="KtHz6CWN3VUIrA_hkouJ-239" value="" style="strokeColor=#FFFFFF;fillColor=#BAC8D3;fontSize=18;strokeWidth=2;fontFamily=Helvetica;html=1;opacity=60;" parent="1" vertex="1">
          <mxGeometry x="2690" y="930.5" width="900" height="100" as="geometry" />
        </mxCell>
        <mxCell id="KtHz6CWN3VUIrA_hkouJ-238" value="" style="strokeColor=#FFFFFF;fillColor=#BAC8D3;fontSize=18;strokeWidth=2;fontFamily=Helvetica;html=1;opacity=90;" parent="1" vertex="1">
          <mxGeometry x="2690" y="1030.5" width="900" height="100" as="geometry" />
        </mxCell>
        <mxCell id="56" value="Dorapad App业务逻辑" style="strokeColor=#BAC8D3;fillColor=#23445D;fontSize=24;strokeWidth=2;fontFamily=Helvetica;html=1;fontColor=#FFFFFF;fontStyle=0;spacingBottom=8;spacingRight=0;spacingLeft=83;" parent="1" vertex="1">
          <mxGeometry x="150" y="830" width="3440" height="100.5" as="geometry" />
        </mxCell>
        <mxCell id="68" value="" style="strokeColor=#FFFFFF;fillColor=#BAC8D3;fontSize=18;strokeWidth=2;fontFamily=Helvetica;html=1;opacity=60;" parent="1" vertex="1">
          <mxGeometry x="244" y="930.5" width="406" height="100" as="geometry" />
        </mxCell>
        <mxCell id="69" value="" style="strokeColor=#FFFFFF;fillColor=#BAC8D3;fontSize=18;strokeWidth=2;fontFamily=Helvetica;html=1;opacity=90;" parent="1" vertex="1">
          <mxGeometry x="244" y="1030.5" width="406" height="100" as="geometry" />
        </mxCell>
        <mxCell id="70" value="" style="strokeColor=#FFFFFF;fillColor=#BAC8D3;fontSize=18;strokeWidth=2;fontFamily=Helvetica;html=1;opacity=60;" parent="1" vertex="1">
          <mxGeometry x="244" y="1130.5" width="406" height="100" as="geometry" />
        </mxCell>
        <mxCell id="71" value="" style="strokeColor=#FFFFFF;fillColor=#BAC8D3;fontSize=18;strokeWidth=2;fontFamily=Helvetica;html=1;opacity=90;" parent="1" vertex="1">
          <mxGeometry x="244" y="1230.5" width="406" height="100" as="geometry" />
        </mxCell>
        <mxCell id="75" value="" style="strokeColor=#FFFFFF;fillColor=#BAC8D3;fontSize=18;strokeWidth=2;fontFamily=Helvetica;html=1;opacity=60;" parent="1" vertex="1">
          <mxGeometry x="650" y="930.5" width="820" height="100" as="geometry" />
        </mxCell>
        <mxCell id="76" value="" style="strokeColor=#FFFFFF;fillColor=#BAC8D3;fontSize=18;strokeWidth=2;fontFamily=Helvetica;html=1;opacity=90;" parent="1" vertex="1">
          <mxGeometry x="650" y="1030.5" width="820" height="100" as="geometry" />
        </mxCell>
        <mxCell id="77" value="" style="strokeColor=#FFFFFF;fillColor=#BAC8D3;fontSize=18;strokeWidth=2;fontFamily=Helvetica;html=1;opacity=60;" parent="1" vertex="1">
          <mxGeometry x="650" y="1130.5" width="820" height="100" as="geometry" />
        </mxCell>
        <mxCell id="78" value="" style="strokeColor=#FFFFFF;fillColor=#BAC8D3;fontSize=18;strokeWidth=2;fontFamily=Helvetica;html=1;opacity=90;" parent="1" vertex="1">
          <mxGeometry x="650" y="1230.5" width="820" height="100" as="geometry" />
        </mxCell>
        <mxCell id="82" value="" style="strokeColor=#FFFFFF;fillColor=#BAC8D3;fontSize=18;strokeWidth=2;fontFamily=Helvetica;html=1;opacity=60;" parent="1" vertex="1">
          <mxGeometry x="1470" y="930.5" width="1220" height="100" as="geometry" />
        </mxCell>
        <mxCell id="83" value="" style="strokeColor=#FFFFFF;fillColor=#BAC8D3;fontSize=18;strokeWidth=2;fontFamily=Helvetica;html=1;opacity=90;" parent="1" vertex="1">
          <mxGeometry x="1470" y="1030.5" width="1220" height="100" as="geometry" />
        </mxCell>
        <mxCell id="84" value="" style="strokeColor=#FFFFFF;fillColor=#BAC8D3;fontSize=18;strokeWidth=2;fontFamily=Helvetica;html=1;opacity=60;" parent="1" vertex="1">
          <mxGeometry x="1470" y="1130.5" width="1220" height="100" as="geometry" />
        </mxCell>
        <mxCell id="85" value="" style="strokeColor=#FFFFFF;fillColor=#BAC8D3;fontSize=18;strokeWidth=2;fontFamily=Helvetica;html=1;opacity=90;" parent="1" vertex="1">
          <mxGeometry x="1470" y="1230.5" width="1220" height="100" as="geometry" />
        </mxCell>
        <mxCell id="140" value="" style="group" parent="1" vertex="1" connectable="0">
          <mxGeometry x="150" y="890.5" width="1320" height="40" as="geometry" />
        </mxCell>
        <mxCell id="141" value="页面模块" style="strokeColor=#BAC8D3;fillColor=#5d7f99;fontSize=19;strokeWidth=2;fontFamily=Helvetica;html=1;labelBackgroundColor=none;fontColor=#FFFFFF;" parent="140" vertex="1">
          <mxGeometry width="500" height="40" as="geometry" />
        </mxCell>
        <mxCell id="142" value="空柜阶段" style="strokeColor=#BAC8D3;fillColor=#5d7f99;fontSize=19;strokeWidth=2;fontFamily=Helvetica;html=1;labelBackgroundColor=none;fontColor=#FFFFFF;" parent="140" vertex="1">
          <mxGeometry x="500" width="820" height="40" as="geometry" />
        </mxCell>
        <mxCell id="KtHz6CWN3VUIrA_hkouJ-171" style="edgeStyle=orthogonalEdgeStyle;rounded=1;orthogonalLoop=1;jettySize=auto;html=1;exitX=1;exitY=0.5;exitDx=0;exitDy=0;fontSize=13;fontColor=#FFFFFFFF;strokeWidth=3;" parent="1" source="KtHz6CWN3VUIrA_hkouJ-160" target="KtHz6CWN3VUIrA_hkouJ-169" edge="1">
          <mxGeometry relative="1" as="geometry" />
        </mxCell>
        <mxCell id="KtHz6CWN3VUIrA_hkouJ-160" value="&lt;font color=&quot;#ffffff&quot;&gt;&lt;span&gt;审核拍摄照片&lt;/span&gt;&lt;/font&gt;" style="rounded=1;fillColor=#4477AB;strokeColor=none;strokeWidth=2;fontFamily=Helvetica;html=1;gradientColor=none;fontSize=13;" parent="1" vertex="1">
          <mxGeometry x="680" y="1255.5" width="330" height="50" as="geometry" />
        </mxCell>
        <mxCell id="KtHz6CWN3VUIrA_hkouJ-166" style="edgeStyle=orthogonalEdgeStyle;rounded=1;orthogonalLoop=1;jettySize=auto;html=1;exitX=0.5;exitY=1;exitDx=0;exitDy=0;fontSize=13;fontColor=#FFFFFFFF;strokeWidth=3;" parent="1" target="KtHz6CWN3VUIrA_hkouJ-160" edge="1">
          <mxGeometry relative="1" as="geometry">
            <mxPoint x="743.5045578231293" y="1205.5" as="sourcePoint" />
          </mxGeometry>
        </mxCell>
        <mxCell id="KtHz6CWN3VUIrA_hkouJ-168" style="edgeStyle=orthogonalEdgeStyle;rounded=1;orthogonalLoop=1;jettySize=auto;html=1;exitX=1;exitY=0.5;exitDx=0;exitDy=0;fontSize=13;fontColor=#FFFFFFFF;strokeWidth=3;" parent="1" target="KtHz6CWN3VUIrA_hkouJ-163" edge="1">
          <mxGeometry relative="1" as="geometry">
            <mxPoint x="807.0045578231293" y="1180.5" as="sourcePoint" />
          </mxGeometry>
        </mxCell>
        <mxCell id="KtHz6CWN3VUIrA_hkouJ-167" value="" style="edgeStyle=orthogonalEdgeStyle;rounded=1;orthogonalLoop=1;jettySize=auto;html=1;fontSize=13;fontColor=#FFFFFFFF;strokeWidth=3;" parent="1" source="KtHz6CWN3VUIrA_hkouJ-163" target="KtHz6CWN3VUIrA_hkouJ-160" edge="1">
          <mxGeometry relative="1" as="geometry" />
        </mxCell>
        <mxCell id="KtHz6CWN3VUIrA_hkouJ-163" value="&lt;font color=&quot;#ffffff&quot;&gt;&lt;span&gt;拍摄集装箱空柜&lt;/span&gt;&lt;/font&gt;" style="rounded=1;fillColor=#009E4F;strokeColor=none;strokeWidth=2;fontFamily=Helvetica;html=1;gradientColor=none;fontSize=13;" parent="1" vertex="1">
          <mxGeometry x="883.0045578231293" y="1155.5" width="127" height="50" as="geometry" />
        </mxCell>
        <mxCell id="KtHz6CWN3VUIrA_hkouJ-173" style="edgeStyle=orthogonalEdgeStyle;rounded=1;orthogonalLoop=1;jettySize=auto;html=1;fontSize=13;fontColor=#FFFFFFFF;strokeWidth=3;" parent="1" source="KtHz6CWN3VUIrA_hkouJ-169" target="KtHz6CWN3VUIrA_hkouJ-170" edge="1">
          <mxGeometry relative="1" as="geometry" />
        </mxCell>
        <mxCell id="KtHz6CWN3VUIrA_hkouJ-178" value="有" style="edgeLabel;html=1;align=center;verticalAlign=middle;resizable=0;points=[];fontSize=18;fontColor=#23445D;labelBackgroundColor=none;fontStyle=1" parent="KtHz6CWN3VUIrA_hkouJ-173" connectable="0" vertex="1">
          <mxGeometry x="-0.0345" relative="1" as="geometry">
            <mxPoint x="20" as="offset" />
          </mxGeometry>
        </mxCell>
        <mxCell id="KtHz6CWN3VUIrA_hkouJ-175" style="edgeStyle=orthogonalEdgeStyle;rounded=1;orthogonalLoop=1;jettySize=auto;html=1;exitX=1;exitY=0.5;exitDx=0;exitDy=0;fontSize=13;fontColor=#FFFFFFFF;strokeWidth=3;" parent="1" source="KtHz6CWN3VUIrA_hkouJ-169" target="KtHz6CWN3VUIrA_hkouJ-174" edge="1">
          <mxGeometry relative="1" as="geometry" />
        </mxCell>
        <mxCell id="KtHz6CWN3VUIrA_hkouJ-179" value="否" style="edgeLabel;html=1;align=center;verticalAlign=middle;resizable=0;points=[];fontSize=18;fontColor=#23445D;labelBackgroundColor=none;fontStyle=1" parent="KtHz6CWN3VUIrA_hkouJ-175" connectable="0" vertex="1">
          <mxGeometry x="-0.1429" y="5" relative="1" as="geometry">
            <mxPoint x="-1" y="-15" as="offset" />
          </mxGeometry>
        </mxCell>
        <mxCell id="KtHz6CWN3VUIrA_hkouJ-169" value="判断是否有异常" style="rhombus;whiteSpace=wrap;html=1;fontSize=13;fontColor=#FFFFFFFF;fillColor=#4477AB;strokeColor=none;" parent="1" vertex="1">
          <mxGeometry x="1080" y="1236" width="120" height="89" as="geometry" />
        </mxCell>
        <mxCell id="KtHz6CWN3VUIrA_hkouJ-170" value="&lt;font color=&quot;#ffffff&quot;&gt;&lt;span&gt;处理异常&lt;/span&gt;&lt;/font&gt;" style="rounded=1;fillColor=#23445D;strokeColor=none;strokeWidth=2;fontFamily=Helvetica;html=1;gradientColor=none;fontSize=13;" parent="1" vertex="1">
          <mxGeometry x="1076.5045578231293" y="1055.5" width="127" height="50" as="geometry" />
        </mxCell>
        <mxCell id="KtHz6CWN3VUIrA_hkouJ-181" style="edgeStyle=orthogonalEdgeStyle;rounded=1;orthogonalLoop=1;jettySize=auto;html=1;exitX=1;exitY=0.5;exitDx=0;exitDy=0;entryX=0;entryY=0.5;entryDx=0;entryDy=0;fontSize=18;fontColor=#23445D;strokeWidth=3;" parent="1" source="KtHz6CWN3VUIrA_hkouJ-174" target="KtHz6CWN3VUIrA_hkouJ-180" edge="1">
          <mxGeometry relative="1" as="geometry" />
        </mxCell>
        <mxCell id="KtHz6CWN3VUIrA_hkouJ-174" value="&lt;font color=&quot;#ffffff&quot;&gt;&lt;span&gt;完成审核&lt;/span&gt;&lt;/font&gt;" style="rounded=1;fillColor=#4477AB;strokeColor=none;strokeWidth=2;fontFamily=Helvetica;html=1;gradientColor=none;fontSize=13;" parent="1" vertex="1">
          <mxGeometry x="1270.0045578231293" y="1255.5" width="127" height="50" as="geometry" />
        </mxCell>
        <mxCell id="KtHz6CWN3VUIrA_hkouJ-191" style="edgeStyle=orthogonalEdgeStyle;rounded=1;orthogonalLoop=1;jettySize=auto;html=1;exitX=1;exitY=0.5;exitDx=0;exitDy=0;fontSize=18;fontColor=#23445D;strokeWidth=3;" parent="1" source="KtHz6CWN3VUIrA_hkouJ-180" target="KtHz6CWN3VUIrA_hkouJ-182" edge="1">
          <mxGeometry relative="1" as="geometry" />
        </mxCell>
        <mxCell id="KtHz6CWN3VUIrA_hkouJ-180" value="&lt;font color=&quot;#ffffff&quot;&gt;&lt;span&gt;开始装柜&lt;/span&gt;&lt;/font&gt;" style="rounded=1;fillColor=#009E4F;strokeColor=none;strokeWidth=2;fontFamily=Helvetica;html=1;gradientColor=none;fontSize=13;" parent="1" vertex="1">
          <mxGeometry x="1510.0045578231293" y="1156" width="127" height="50" as="geometry" />
        </mxCell>
        <mxCell id="KtHz6CWN3VUIrA_hkouJ-192" value="" style="edgeStyle=orthogonalEdgeStyle;rounded=1;orthogonalLoop=1;jettySize=auto;html=1;fontSize=18;fontColor=#23445D;strokeWidth=3;" parent="1" source="KtHz6CWN3VUIrA_hkouJ-182" target="KtHz6CWN3VUIrA_hkouJ-184" edge="1">
          <mxGeometry relative="1" as="geometry" />
        </mxCell>
        <mxCell id="KtHz6CWN3VUIrA_hkouJ-199" style="edgeStyle=orthogonalEdgeStyle;rounded=1;orthogonalLoop=1;jettySize=auto;html=1;entryX=0.5;entryY=0;entryDx=0;entryDy=0;fontSize=18;fontColor=#23445D;strokeColor=#000000;strokeWidth=3;" parent="1" source="KtHz6CWN3VUIrA_hkouJ-182" target="KtHz6CWN3VUIrA_hkouJ-194" edge="1">
          <mxGeometry relative="1" as="geometry" />
        </mxCell>
        <mxCell id="KtHz6CWN3VUIrA_hkouJ-182" value="&lt;font color=&quot;#ffffff&quot;&gt;&lt;span&gt;拍摄货物特写&lt;br&gt;&amp;amp;&lt;br&gt;被隐藏货物&lt;br&gt;&lt;/span&gt;&lt;/font&gt;" style="rounded=1;fillColor=#009E4F;strokeColor=none;strokeWidth=2;fontFamily=Helvetica;html=1;gradientColor=none;fontSize=13;" parent="1" vertex="1">
          <mxGeometry x="1680.0045578231293" y="1156" width="127" height="50" as="geometry" />
        </mxCell>
        <mxCell id="KtHz6CWN3VUIrA_hkouJ-198" style="edgeStyle=orthogonalEdgeStyle;rounded=1;orthogonalLoop=1;jettySize=auto;html=1;exitX=0.5;exitY=1;exitDx=0;exitDy=0;fontSize=18;fontColor=#23445D;strokeColor=#000000;strokeWidth=3;" parent="1" source="KtHz6CWN3VUIrA_hkouJ-184" target="KtHz6CWN3VUIrA_hkouJ-194" edge="1">
          <mxGeometry relative="1" as="geometry" />
        </mxCell>
        <mxCell id="2HjYMI2amC04PTZFWY6z-145" style="edgeStyle=orthogonalEdgeStyle;rounded=0;orthogonalLoop=1;jettySize=auto;html=1;exitX=1;exitY=0.5;exitDx=0;exitDy=0;strokeWidth=3;entryX=0;entryY=0.493;entryDx=0;entryDy=0;entryPerimeter=0;" parent="1" source="KtHz6CWN3VUIrA_hkouJ-184" target="2HjYMI2amC04PTZFWY6z-143" edge="1">
          <mxGeometry relative="1" as="geometry" />
        </mxCell>
        <mxCell id="KtHz6CWN3VUIrA_hkouJ-184" value="&lt;font color=&quot;#ffffff&quot;&gt;&lt;span&gt;拍摄整排&lt;/span&gt;&lt;/font&gt;" style="rounded=1;fillColor=#009E4F;strokeColor=none;strokeWidth=2;fontFamily=Helvetica;html=1;gradientColor=none;fontSize=13;" parent="1" vertex="1">
          <mxGeometry x="1836.5045578231293" y="1155.5" width="127" height="50" as="geometry" />
        </mxCell>
        <mxCell id="KtHz6CWN3VUIrA_hkouJ-196" value="&lt;b&gt;否（开始新一排拍摄）&lt;/b&gt;" style="edgeStyle=orthogonalEdgeStyle;rounded=1;orthogonalLoop=1;jettySize=auto;html=1;fontSize=18;fontColor=#23445D;strokeWidth=3;strokeColor=#FF2B0A;exitX=0.5;exitY=0;exitDx=0;exitDy=0;labelBackgroundColor=none;" parent="1" source="KtHz6CWN3VUIrA_hkouJ-190" edge="1">
          <mxGeometry x="-0.0029" y="-10" relative="1" as="geometry">
            <mxPoint x="2063" y="1136" as="sourcePoint" />
            <mxPoint x="1571" y="1156" as="targetPoint" />
            <Array as="points">
              <mxPoint x="2170" y="1120" />
              <mxPoint x="1571" y="1120" />
            </Array>
            <mxPoint as="offset" />
          </mxGeometry>
        </mxCell>
        <mxCell id="KtHz6CWN3VUIrA_hkouJ-210" style="edgeStyle=orthogonalEdgeStyle;rounded=1;orthogonalLoop=1;jettySize=auto;html=1;exitX=1;exitY=0.5;exitDx=0;exitDy=0;labelBackgroundColor=none;fontSize=11;fontColor=#23445D;strokeColor=#000000;strokeWidth=3;" parent="1" source="KtHz6CWN3VUIrA_hkouJ-190" target="KtHz6CWN3VUIrA_hkouJ-207" edge="1">
          <mxGeometry relative="1" as="geometry" />
        </mxCell>
        <mxCell id="KtHz6CWN3VUIrA_hkouJ-190" value="判断是否剩余&lt;br style=&quot;font-size: 11px;&quot;&gt;货物是否为0" style="rhombus;whiteSpace=wrap;html=1;fontSize=11;fontColor=#FFFFFFFF;fillColor=#23445D;strokeColor=none;" parent="1" vertex="1">
          <mxGeometry x="2120" y="1143.5" width="100" height="74" as="geometry" />
        </mxCell>
        <mxCell id="KtHz6CWN3VUIrA_hkouJ-200" style="edgeStyle=orthogonalEdgeStyle;rounded=1;orthogonalLoop=1;jettySize=auto;html=1;exitX=1;exitY=0.5;exitDx=0;exitDy=0;fontSize=18;fontColor=#23445D;strokeColor=#000000;strokeWidth=3;" parent="1" source="KtHz6CWN3VUIrA_hkouJ-194" target="KtHz6CWN3VUIrA_hkouJ-195" edge="1">
          <mxGeometry relative="1" as="geometry">
            <Array as="points">
              <mxPoint x="2010" y="1281" />
              <mxPoint x="2010" y="1350" />
              <mxPoint x="2400" y="1350" />
            </Array>
          </mxGeometry>
        </mxCell>
        <mxCell id="KtHz6CWN3VUIrA_hkouJ-194" value="&lt;font color=&quot;#ffffff&quot;&gt;&lt;span&gt;实时审核拍摄照片&lt;/span&gt;&lt;/font&gt;" style="rounded=1;fillColor=#4477AB;strokeColor=none;strokeWidth=2;fontFamily=Helvetica;html=1;gradientColor=none;fontSize=13;" parent="1" vertex="1">
          <mxGeometry x="1680" y="1255.5" width="280" height="50" as="geometry" />
        </mxCell>
        <mxCell id="KtHz6CWN3VUIrA_hkouJ-209" style="edgeStyle=orthogonalEdgeStyle;rounded=1;orthogonalLoop=1;jettySize=auto;html=1;entryX=0.5;entryY=1;entryDx=0;entryDy=0;labelBackgroundColor=none;fontSize=11;fontColor=#23445D;strokeColor=#000000;strokeWidth=3;" parent="1" source="KtHz6CWN3VUIrA_hkouJ-195" target="KtHz6CWN3VUIrA_hkouJ-201" edge="1">
          <mxGeometry relative="1" as="geometry" />
        </mxCell>
        <mxCell id="KtHz6CWN3VUIrA_hkouJ-219" style="edgeStyle=orthogonalEdgeStyle;rounded=1;orthogonalLoop=1;jettySize=auto;html=1;exitX=1;exitY=0.5;exitDx=0;exitDy=0;entryX=0;entryY=0.5;entryDx=0;entryDy=0;labelBackgroundColor=none;fontSize=11;fontColor=#23445D;strokeColor=#000000;strokeWidth=3;" parent="1" source="KtHz6CWN3VUIrA_hkouJ-195" target="KtHz6CWN3VUIrA_hkouJ-218" edge="1">
          <mxGeometry relative="1" as="geometry" />
        </mxCell>
        <mxCell id="KtHz6CWN3VUIrA_hkouJ-195" value="判断是否有异常" style="rhombus;whiteSpace=wrap;html=1;fontSize=13;fontColor=#FFFFFFFF;fillColor=#4477AB;strokeColor=none;" parent="1" vertex="1">
          <mxGeometry x="2338" y="1238.25" width="120" height="89" as="geometry" />
        </mxCell>
        <mxCell id="KtHz6CWN3VUIrA_hkouJ-201" value="&lt;font color=&quot;#ffffff&quot;&gt;&lt;span&gt;处理异常&lt;/span&gt;&lt;/font&gt;" style="rounded=1;fillColor=#23445D;strokeColor=none;strokeWidth=2;fontFamily=Helvetica;html=1;gradientColor=none;fontSize=13;" parent="1" vertex="1">
          <mxGeometry x="2334.5045578231293" y="1055.5" width="127" height="50" as="geometry" />
        </mxCell>
        <mxCell id="KtHz6CWN3VUIrA_hkouJ-206" value="有" style="edgeLabel;html=1;align=center;verticalAlign=middle;resizable=0;points=[];fontSize=18;fontColor=#23445D;labelBackgroundColor=none;fontStyle=1" parent="1" connectable="0" vertex="1">
          <mxGeometry x="1400" y="1190.002857142857" as="geometry">
            <mxPoint x="1012" y="-10" as="offset" />
          </mxGeometry>
        </mxCell>
        <mxCell id="KtHz6CWN3VUIrA_hkouJ-215" value="" style="edgeStyle=orthogonalEdgeStyle;rounded=1;orthogonalLoop=1;jettySize=auto;html=1;labelBackgroundColor=none;fontSize=11;fontColor=#23445D;strokeColor=#000000;strokeWidth=3;" parent="1" source="KtHz6CWN3VUIrA_hkouJ-207" target="KtHz6CWN3VUIrA_hkouJ-213" edge="1">
          <mxGeometry relative="1" as="geometry" />
        </mxCell>
        <mxCell id="KtHz6CWN3VUIrA_hkouJ-207" value="&lt;font color=&quot;#ffffff&quot;&gt;&lt;span&gt;完成拍摄&lt;/span&gt;&lt;/font&gt;" style="rounded=1;fillColor=#009E4F;strokeColor=none;strokeWidth=2;fontFamily=Helvetica;html=1;gradientColor=none;fontSize=13;" parent="1" vertex="1">
          <mxGeometry x="2247.0045578231293" y="1156" width="127" height="50" as="geometry" />
        </mxCell>
        <mxCell id="KtHz6CWN3VUIrA_hkouJ-216" value="" style="edgeStyle=orthogonalEdgeStyle;rounded=1;orthogonalLoop=1;jettySize=auto;html=1;labelBackgroundColor=none;fontSize=11;fontColor=#23445D;strokeColor=#000000;strokeWidth=3;" parent="1" source="KtHz6CWN3VUIrA_hkouJ-213" target="KtHz6CWN3VUIrA_hkouJ-195" edge="1">
          <mxGeometry relative="1" as="geometry" />
        </mxCell>
        <mxCell id="KtHz6CWN3VUIrA_hkouJ-213" value="&lt;font color=&quot;#ffffff&quot;&gt;&lt;span&gt;审核未审照片&lt;/span&gt;&lt;/font&gt;" style="rounded=1;fillColor=#4477AB;strokeColor=none;strokeWidth=2;fontFamily=Helvetica;html=1;gradientColor=none;fontSize=13;" parent="1" vertex="1">
          <mxGeometry x="2120" y="1255.5" width="130" height="54.5" as="geometry" />
        </mxCell>
        <mxCell id="KtHz6CWN3VUIrA_hkouJ-233" style="edgeStyle=orthogonalEdgeStyle;rounded=1;orthogonalLoop=1;jettySize=auto;html=1;entryX=0;entryY=0.5;entryDx=0;entryDy=0;labelBackgroundColor=none;fontSize=11;fontColor=#23445D;strokeColor=#000000;strokeWidth=3;" parent="1" source="KtHz6CWN3VUIrA_hkouJ-218" target="KtHz6CWN3VUIrA_hkouJ-221" edge="1">
          <mxGeometry relative="1" as="geometry" />
        </mxCell>
        <mxCell id="KtHz6CWN3VUIrA_hkouJ-218" value="&lt;font color=&quot;#ffffff&quot;&gt;&lt;span&gt;审核通过&lt;/span&gt;&lt;/font&gt;" style="rounded=1;fillColor=#4477AB;strokeColor=none;strokeWidth=2;fontFamily=Helvetica;html=1;gradientColor=none;fontSize=13;" parent="1" vertex="1">
          <mxGeometry x="2530" y="1255.5" width="130" height="54.5" as="geometry" />
        </mxCell>
        <mxCell id="KtHz6CWN3VUIrA_hkouJ-220" value="否" style="edgeLabel;html=1;align=center;verticalAlign=middle;resizable=0;points=[];fontSize=18;fontColor=#23445D;labelBackgroundColor=none;fontStyle=1" parent="1" connectable="0" vertex="1">
          <mxGeometry x="1280" y="1289.9999999999998" as="geometry">
            <mxPoint x="1210" y="-28" as="offset" />
          </mxGeometry>
        </mxCell>
        <mxCell id="KtHz6CWN3VUIrA_hkouJ-232" style="edgeStyle=orthogonalEdgeStyle;rounded=1;orthogonalLoop=1;jettySize=auto;html=1;labelBackgroundColor=none;fontSize=11;fontColor=#23445D;strokeColor=#000000;strokeWidth=3;" parent="1" source="KtHz6CWN3VUIrA_hkouJ-221" target="KtHz6CWN3VUIrA_hkouJ-228" edge="1">
          <mxGeometry relative="1" as="geometry" />
        </mxCell>
        <mxCell id="KtHz6CWN3VUIrA_hkouJ-221" value="&lt;font color=&quot;#ffffff&quot;&gt;&lt;span&gt;封条&lt;br&gt;&amp;amp;&lt;br&gt;绑绳照片上传&lt;br&gt;&lt;/span&gt;&lt;/font&gt;" style="rounded=1;fillColor=#4477AB;strokeColor=none;strokeWidth=2;fontFamily=Helvetica;html=1;gradientColor=none;fontSize=13;" parent="1" vertex="1">
          <mxGeometry x="2740" y="1053.25" width="130" height="54.5" as="geometry" />
        </mxCell>
        <mxCell id="KtHz6CWN3VUIrA_hkouJ-242" style="edgeStyle=orthogonalEdgeStyle;rounded=1;orthogonalLoop=1;jettySize=auto;html=1;exitX=1;exitY=0.5;exitDx=0;exitDy=0;labelBackgroundColor=none;fontSize=11;fontColor=#23445D;strokeColor=#000000;strokeWidth=3;" parent="1" source="KtHz6CWN3VUIrA_hkouJ-222" target="KtHz6CWN3VUIrA_hkouJ-237" edge="1">
          <mxGeometry relative="1" as="geometry" />
        </mxCell>
        <mxCell id="KtHz6CWN3VUIrA_hkouJ-222" value="&lt;font color=&quot;#ffffff&quot;&gt;&lt;span&gt;上传其他封柜照片&lt;/span&gt;&lt;/font&gt;" style="rounded=1;fillColor=#4477AB;strokeColor=none;strokeWidth=2;fontFamily=Helvetica;html=1;gradientColor=none;fontSize=13;" parent="1" vertex="1">
          <mxGeometry x="3240" y="1053.25" width="130" height="54.5" as="geometry" />
        </mxCell>
        <mxCell id="KtHz6CWN3VUIrA_hkouJ-230" style="edgeStyle=orthogonalEdgeStyle;rounded=1;orthogonalLoop=1;jettySize=auto;html=1;entryX=0;entryY=0.5;entryDx=0;entryDy=0;labelBackgroundColor=none;fontSize=11;fontColor=#23445D;strokeColor=#000000;strokeWidth=3;" parent="1" source="KtHz6CWN3VUIrA_hkouJ-228" target="KtHz6CWN3VUIrA_hkouJ-229" edge="1">
          <mxGeometry relative="1" as="geometry" />
        </mxCell>
        <mxCell id="KtHz6CWN3VUIrA_hkouJ-231" style="edgeStyle=orthogonalEdgeStyle;rounded=1;orthogonalLoop=1;jettySize=auto;html=1;exitX=0.5;exitY=0;exitDx=0;exitDy=0;entryX=0.5;entryY=0;entryDx=0;entryDy=0;labelBackgroundColor=none;fontSize=11;fontColor=#23445D;strokeColor=#000000;strokeWidth=3;" parent="1" source="KtHz6CWN3VUIrA_hkouJ-228" target="KtHz6CWN3VUIrA_hkouJ-222" edge="1">
          <mxGeometry relative="1" as="geometry" />
        </mxCell>
        <mxCell id="KtHz6CWN3VUIrA_hkouJ-228" value="判断是否有异常" style="rhombus;whiteSpace=wrap;html=1;fontSize=13;fontColor=#FFFFFFFF;fillColor=#4477AB;strokeColor=none;" parent="1" vertex="1">
          <mxGeometry x="2910" y="1036" width="120" height="89" as="geometry" />
        </mxCell>
        <mxCell id="KtHz6CWN3VUIrA_hkouJ-229" value="&lt;font color=&quot;#ffffff&quot;&gt;&lt;span&gt;处理异常&lt;/span&gt;&lt;/font&gt;" style="rounded=1;fillColor=#23445D;strokeColor=none;strokeWidth=2;fontFamily=Helvetica;html=1;gradientColor=none;fontSize=13;" parent="1" vertex="1">
          <mxGeometry x="3070.0045578231293" y="1055.5" width="127" height="50" as="geometry" />
        </mxCell>
        <mxCell id="KtHz6CWN3VUIrA_hkouJ-235" value="有" style="edgeLabel;html=1;align=center;verticalAlign=middle;resizable=0;points=[];fontSize=18;fontColor=#23445D;labelBackgroundColor=none;fontStyle=1" parent="1" connectable="0" vertex="1">
          <mxGeometry x="2030" y="1070.002857142857" as="geometry">
            <mxPoint x="1012" y="-10" as="offset" />
          </mxGeometry>
        </mxCell>
        <mxCell id="KtHz6CWN3VUIrA_hkouJ-236" value="否" style="edgeLabel;html=1;align=center;verticalAlign=middle;resizable=0;points=[];fontSize=18;fontColor=#23445D;labelBackgroundColor=none;fontStyle=1" parent="1" connectable="0" vertex="1">
          <mxGeometry x="1930" y="1019.9999999999998" as="geometry">
            <mxPoint x="1210" y="-28" as="offset" />
          </mxGeometry>
        </mxCell>
        <mxCell id="KtHz6CWN3VUIrA_hkouJ-237" value="&lt;font color=&quot;#ffffff&quot;&gt;&lt;span&gt;完成封柜&lt;/span&gt;&lt;/font&gt;" style="rounded=1;fillColor=#4477AB;strokeColor=none;strokeWidth=2;fontFamily=Helvetica;html=1;gradientColor=none;fontSize=13;" parent="1" vertex="1">
          <mxGeometry x="3410" y="1053.25" width="130" height="54.5" as="geometry" />
        </mxCell>
        <mxCell id="KtHz6CWN3VUIrA_hkouJ-243" value="封柜阶段" style="strokeColor=#BAC8D3;fillColor=#5d7f99;fontSize=19;strokeWidth=2;fontFamily=Helvetica;html=1;labelBackgroundColor=none;fontColor=#FFFFFF;" parent="1" vertex="1">
          <mxGeometry x="2690" y="890.5" width="900" height="40" as="geometry" />
        </mxCell>
        <mxCell id="143" value="装箱阶段" style="strokeColor=#BAC8D3;fillColor=#5d7f99;fontSize=19;strokeWidth=2;fontFamily=Helvetica;html=1;labelBackgroundColor=none;fontColor=#FFFFFF;" parent="1" vertex="1">
          <mxGeometry x="1470" y="890.5" width="1220" height="40" as="geometry" />
        </mxCell>
        <mxCell id="KtHz6CWN3VUIrA_hkouJ-246" value="&lt;font color=&quot;#ffffff&quot;&gt;&lt;font style=&quot;font-size: 19px&quot;&gt;网页端操作&lt;/font&gt;&lt;br style=&quot;font-size: 13px&quot;&gt;&lt;/font&gt;" style="rounded=1;fillColor=#4477AB;strokeColor=none;strokeWidth=2;fontFamily=Helvetica;html=1;gradientColor=none;fontSize=13;" parent="1" vertex="1">
          <mxGeometry x="143.39455782312928" y="668" width="127" height="50" as="geometry" />
        </mxCell>
        <mxCell id="KtHz6CWN3VUIrA_hkouJ-247" value="是" style="edgeLabel;html=1;align=center;verticalAlign=middle;resizable=0;points=[];fontSize=18;fontColor=#23445D;labelBackgroundColor=none;fontStyle=1" parent="1" connectable="0" vertex="1">
          <mxGeometry x="1210" y="1170.002857142857" as="geometry">
            <mxPoint x="1012" y="-10" as="offset" />
          </mxGeometry>
        </mxCell>
        <mxCell id="2HjYMI2amC04PTZFWY6z-144" style="edgeStyle=orthogonalEdgeStyle;rounded=0;orthogonalLoop=1;jettySize=auto;html=1;entryX=0;entryY=0.5;entryDx=0;entryDy=0;strokeWidth=3;" parent="1" source="2HjYMI2amC04PTZFWY6z-143" target="KtHz6CWN3VUIrA_hkouJ-201" edge="1">
          <mxGeometry relative="1" as="geometry">
            <Array as="points">
              <mxPoint x="2040" y="1081" />
              <mxPoint x="2207" y="1081" />
            </Array>
          </mxGeometry>
        </mxCell>
        <mxCell id="2HjYMI2amC04PTZFWY6z-146" style="edgeStyle=orthogonalEdgeStyle;rounded=0;orthogonalLoop=1;jettySize=auto;html=1;exitX=1;exitY=0.5;exitDx=0;exitDy=0;entryX=0;entryY=0.5;entryDx=0;entryDy=0;strokeWidth=3;" parent="1" source="2HjYMI2amC04PTZFWY6z-143" target="KtHz6CWN3VUIrA_hkouJ-190" edge="1">
          <mxGeometry relative="1" as="geometry" />
        </mxCell>
        <mxCell id="2HjYMI2amC04PTZFWY6z-143" value="是否有提示错误&lt;br&gt;需要处理" style="rhombus;whiteSpace=wrap;html=1;fontSize=11;fontColor=#FFFFFFFF;fillColor=#23445D;strokeColor=none;" parent="1" vertex="1">
          <mxGeometry x="1990" y="1143.5" width="100" height="74" as="geometry" />
        </mxCell>
        <mxCell id="2HjYMI2amC04PTZFWY6z-147" value="是" style="edgeLabel;html=1;align=center;verticalAlign=middle;resizable=0;points=[];fontSize=18;fontColor=#23445D;labelBackgroundColor=none;fontStyle=1" parent="1" connectable="0" vertex="1">
          <mxGeometry x="1169" y="1070.002857142857" as="geometry">
            <mxPoint x="1012" y="-10" as="offset" />
          </mxGeometry>
        </mxCell>
        <mxCell id="2HjYMI2amC04PTZFWY6z-148" value="否" style="edgeLabel;html=1;align=center;verticalAlign=middle;resizable=0;points=[];fontSize=18;fontColor=#23445D;labelBackgroundColor=none;fontStyle=1" parent="1" connectable="0" vertex="1">
          <mxGeometry x="883" y="1189.9999999999998" as="geometry">
            <mxPoint x="1210" y="-28" as="offset" />
          </mxGeometry>
        </mxCell>
      </root>
    </mxGraphModel>
  </diagram>
</mxfile>
